<svg width="23" height="23" viewBox="0 0 23 23" fill="none" xmlns="http://www.w3.org/2000/svg">
<g clip-path="url(#clip0_1_11103)">
<path d="M11.4604 8.1636C9.41244 8.1636 7.7605 9.78972 7.7605 11.8057C7.7605 13.8217 9.41244 15.4479 11.4604 15.4479C13.5085 15.4479 15.1604 13.8217 15.1604 11.8057C15.1604 9.78972 13.5085 8.1636 11.4604 8.1636ZM11.4604 14.1736C10.137 14.1736 9.055 13.1117 9.055 11.8057C9.055 10.4998 10.1337 9.43787 11.4604 9.43787C12.7871 9.43787 13.8659 10.4998 13.8659 11.8057C13.8659 13.1117 12.7839 14.1736 11.4604 14.1736ZM16.1747 8.01462C16.1747 8.48692 15.7883 8.86413 15.3117 8.86413C14.8319 8.86413 14.4487 8.48375 14.4487 8.01462C14.4487 7.54548 14.8351 7.1651 15.3117 7.1651C15.7883 7.1651 16.1747 7.54548 16.1747 8.01462ZM18.6253 8.87681C18.5705 7.73884 18.3065 6.73084 17.4596 5.90034C16.6159 5.06985 15.5919 4.80992 14.4359 4.75287C13.2444 4.6863 9.67327 4.6863 8.48182 4.75287C7.32901 4.80675 6.305 5.06668 5.45811 5.89717C4.61121 6.72767 4.35038 7.73567 4.29242 8.87364C4.22479 10.0465 4.22479 13.5618 4.29242 14.7346C4.34716 15.8726 4.61121 16.8806 5.45811 17.7111C6.305 18.5416 7.32579 18.8015 8.48182 18.8586C9.67327 18.9251 13.2444 18.9251 14.4359 18.8586C15.5919 18.8047 16.6159 18.5448 17.4596 17.7111C18.3032 16.8806 18.5673 15.8726 18.6253 14.7346C18.6929 13.5618 18.6929 10.0496 18.6253 8.87681ZM17.086 15.9931C16.8349 16.6143 16.3486 17.093 15.7142 17.3434C14.7643 17.7143 12.5102 17.6287 11.4604 17.6287C10.4107 17.6287 8.15336 17.7111 7.20664 17.3434C6.57549 17.0962 6.08925 16.6175 5.83486 15.9931C5.45811 15.058 5.54505 12.8391 5.54505 11.8057C5.54505 10.7724 5.46133 8.55032 5.83486 7.61839C6.08603 6.9971 6.57227 6.51846 7.20664 6.26804C8.15658 5.89717 10.4107 5.98276 11.4604 5.98276C12.5102 5.98276 14.7675 5.90034 15.7142 6.26804C16.3454 6.51529 16.8316 6.99393 17.086 7.61839C17.4628 8.55349 17.3758 10.7724 17.3758 11.8057C17.3758 12.8391 17.4628 15.0611 17.086 15.9931Z" fill="#FFDD2D"/>
</g>
<defs>
<clipPath id="clip0_1_11103">
<rect width="14.4262" height="16.2295" fill="white" transform="translate(4.24561 3.69318)"/>
</clipPath>
</defs>
</svg>
