<svg width="22" height="23" viewBox="0 0 22 23" fill="none" xmlns="http://www.w3.org/2000/svg">
<g clip-path="url(#clip0_1_11107)">
<path d="M7.16063 18.1194V8.99436H4.06773V18.1194H7.16063ZM5.61458 7.74775C6.69313 7.74775 7.36447 7.04705 7.36447 6.17142C7.34438 5.27603 6.69317 4.59479 5.63505 4.59479C4.57709 4.59479 3.88525 5.27605 3.88525 6.17142C3.88525 7.04709 4.55643 7.74775 5.59439 7.74775H5.61448H5.61458ZM8.87254 18.1194H11.9654V13.0235C11.9654 12.7508 11.9855 12.4784 12.0672 12.2834C12.2908 11.7385 12.7997 11.1742 13.6541 11.1742C14.7733 11.1742 15.221 12.011 15.221 13.2376V18.1193H18.3137V12.8871C18.3137 10.0843 16.7878 8.78013 14.7529 8.78013C13.0844 8.78013 12.3518 9.69469 11.9449 10.3176H11.9655V8.99417H8.87261C8.91319 9.85042 8.87261 18.1192 8.87261 18.1192L8.87254 18.1194Z" fill="#FFDD2D"/>
</g>
<defs>
<clipPath id="clip0_1_11107">
<rect width="14.4262" height="13.5246" fill="white" transform="translate(3.88525 4.59485)"/>
</clipPath>
</defs>
</svg>
